<svg width="24" height="24" viewBox="0 0 24 24" fill="none" xmlns="http://www.w3.org/2000/svg">
<path d="M11.9815 0C5.37867 0 0 5.37867 0 11.9815C0 18.6213 5.37867 24 11.9815 24C18.6213 24 23.9629 18.6213 23.9629 11.9815C24 5.37867 18.6213 0 11.9815 0ZM15.5054 6.89954C15.5054 7.01082 15.4312 7.08501 15.3199 7.08501H13.7991C13.4281 7.08501 13.1314 7.38176 13.1314 7.75271V9.34776H15.2828C15.3941 9.34776 15.4683 9.45904 15.4683 9.57032L15.2828 11.8331C15.2828 11.9444 15.2087 12.0185 15.0974 12.0185H13.1314V19.4745C13.1314 19.5858 13.0572 19.66 12.9459 19.66H10.2009C10.0896 19.66 10.0155 19.5858 10.0155 19.4745V12.0185H8.64297C8.53168 12.0185 8.4575 11.9444 8.4575 11.8331V9.57032C8.4575 9.45904 8.53168 9.38485 8.64297 9.38485H10.0155V7.23339C10.0155 5.71252 11.2396 4.48841 12.7604 4.48841H15.3199C15.4312 4.48841 15.5054 4.5626 15.5054 4.67388V6.89954Z" fill="white"/>
</svg>
