<svg width="15" height="15" viewBox="0 0 15 15" fill="none" xmlns="http://www.w3.org/2000/svg">
<g clip-path="url(#clip0)">
<path d="M7.76788 14.991C8.91494 14.828 9.92049 13.6308 10.5532 11.8628C9.63854 11.658 8.70511 11.548 7.76788 11.5349V14.991Z" fill="#435279"/>
<path d="M9.60074 14.71C9.66854 14.6904 9.73608 14.6706 9.8031 14.6489C9.85965 14.6307 9.91541 14.611 9.97117 14.5915C10.0371 14.5688 10.1029 14.5453 10.1683 14.5205C10.2241 14.4993 10.2793 14.4767 10.3347 14.4542C10.3986 14.4274 10.4623 14.4007 10.5254 14.3739C10.5805 14.3496 10.6352 14.3242 10.6899 14.2987C10.7518 14.2695 10.8135 14.2398 10.8746 14.2089C10.9283 14.1816 10.9818 14.1537 11.0355 14.125C11.0956 14.0928 11.1553 14.06 11.2146 14.0262C11.2682 13.9958 11.3199 13.9653 11.3722 13.9339C11.4303 13.8982 11.4881 13.8624 11.5456 13.8267C11.597 13.794 11.6484 13.7607 11.699 13.7264C11.7556 13.6883 11.8113 13.6487 11.8668 13.609C11.9167 13.5733 11.9663 13.5377 12.015 13.5018C12.0687 13.4605 12.1236 13.4176 12.1774 13.3747C12.2252 13.3366 12.2729 13.2988 12.3199 13.2597C12.3734 13.2151 12.4247 13.1691 12.4767 13.123C12.5222 13.0826 12.568 13.0425 12.6125 13.001C12.6637 12.9532 12.7136 12.9037 12.7635 12.8547C12.8067 12.812 12.8504 12.77 12.8927 12.7262C12.9005 12.7181 12.908 12.7094 12.9161 12.701C12.3314 12.399 11.7155 12.162 11.0792 11.9941C10.7483 13.0494 10.1594 14.0058 9.36591 14.7762C9.38763 14.7706 9.40936 14.766 9.43109 14.7604C9.48843 14.7443 9.54471 14.7266 9.60074 14.71Z" fill="#435279"/>
<path d="M15.0001 7.77417H11.7858C11.7737 9.02921 11.5916 10.2768 11.2446 11.483C11.9522 11.672 12.6351 11.9438 13.2791 12.2926C14.3365 11.0182 14.9418 9.42923 15.0001 7.77417Z" fill="#435279"/>
<path d="M7.76788 7.23803H11.2494C11.2357 6.02736 11.0581 4.82415 10.7216 3.66113C9.75215 3.88222 8.76205 4.00029 7.76788 4.01338V7.23803Z" fill="#435279"/>
<path d="M7.76788 0.0212402V3.47732C8.70511 3.4641 9.63854 3.35427 10.5532 3.14942C9.92049 1.38139 8.91494 0.184207 7.76788 0.0212402Z" fill="#435279"/>
<path d="M7.76788 10.9988C8.76205 11.012 9.75215 11.1301 10.7216 11.3512C11.0581 10.1882 11.2357 8.98484 11.2494 7.77417H7.76788V10.9988Z" fill="#435279"/>
<path d="M13.2791 2.71973C12.6351 3.06857 11.9522 3.34031 11.2446 3.52933C11.5916 4.73554 11.7737 5.98312 11.7858 7.23816H15.0001C14.9416 5.58323 14.3364 3.99427 13.2791 2.71973Z" fill="#435279"/>
<path d="M12.9168 2.31287C12.9089 2.30489 12.9015 2.29625 12.8938 2.288C12.8513 2.24428 12.8074 2.20213 12.7642 2.15959C12.7144 2.1105 12.6648 2.06089 12.6135 2.01325C12.5691 1.97188 12.5232 1.93274 12.4776 1.89151C12.4257 1.84544 12.3737 1.79897 12.3203 1.75446C12.274 1.71532 12.2264 1.67789 12.1793 1.64032C12.1256 1.59686 12.0707 1.55367 12.0154 1.51217C11.967 1.47565 11.9179 1.44031 11.8686 1.40497C11.8125 1.36465 11.7563 1.32447 11.6992 1.28611C11.649 1.25234 11.5981 1.21936 11.5472 1.18702C11.4892 1.14972 11.4314 1.1132 11.3723 1.07786C11.3206 1.04683 11.2684 1.0162 11.216 0.986489C11.1561 0.952194 11.096 0.918946 11.0354 0.886484C10.9817 0.85965 10.9282 0.83046 10.8745 0.803626C10.8129 0.772473 10.7507 0.742497 10.687 0.713045C10.6333 0.68752 10.5788 0.66265 10.5236 0.638434C10.4601 0.610291 10.396 0.584897 10.332 0.558063C10.2767 0.535549 10.2217 0.513296 10.166 0.492091C10.1009 0.46722 10.035 0.443921 9.96899 0.421145C9.91322 0.40151 9.85746 0.382006 9.80091 0.363681C9.73389 0.341952 9.66687 0.322186 9.59802 0.30229C9.54226 0.285928 9.48624 0.269304 9.42982 0.254382C9.40822 0.248491 9.38623 0.24391 9.3645 0.238281C10.158 1.00874 10.7468 1.96495 11.0778 3.02037C11.7148 2.85256 12.3315 2.61537 12.9168 2.31287Z" fill="#435279"/>
<path d="M0 7.23816H3.21431C3.22648 5.98312 3.40856 4.73554 3.75544 3.52933C3.04794 3.34044 2.36505 3.0687 1.72104 2.71973C0.663648 3.99414 0.0583801 5.58323 0 7.23816Z" fill="#435279"/>
<path d="M7.23189 14.991V11.5349C6.29467 11.5481 5.36124 11.658 4.44653 11.8628C5.07916 13.6308 6.08484 14.828 7.23189 14.991Z" fill="#435279"/>
<path d="M7.23208 7.77417H3.75061C3.76422 8.98484 3.94172 10.1882 4.27839 11.3512C5.24781 11.13 6.23779 11.0119 7.23208 10.9988V7.77417Z" fill="#435279"/>
<path d="M7.23189 0.0212402C6.08484 0.184207 5.07916 1.38139 4.44653 3.14942C5.36124 3.3544 6.29467 3.46423 7.23189 3.47732V0.0212402Z" fill="#435279"/>
<path d="M7.23208 4.01338C6.23792 4.00029 5.24781 3.88222 4.27839 3.66113C3.94172 4.82415 3.76422 6.02736 3.75061 7.23803H7.23208V4.01338Z" fill="#435279"/>
<path d="M5.63327 0.238037C5.61154 0.243666 5.58981 0.248247 5.56808 0.253876C5.51128 0.26906 5.45525 0.285945 5.3987 0.302308C5.33142 0.321942 5.26466 0.341708 5.19712 0.363175C5.14018 0.381631 5.08416 0.401266 5.02813 0.42077C4.96255 0.443938 4.89684 0.466976 4.83192 0.491585C4.77589 0.513052 4.72066 0.535305 4.66516 0.558081C4.60141 0.584915 4.53753 0.611748 4.47457 0.638452C4.41933 0.662668 4.36475 0.688062 4.31003 0.713586C4.24812 0.742777 4.18646 0.77249 4.12534 0.803382C4.07167 0.830739 4.018 0.858751 3.96446 0.887287C3.90438 0.919488 3.84482 0.952474 3.78566 0.986245C3.73199 1.01622 3.67924 1.04698 3.62753 1.0784C3.56928 1.11348 3.51169 1.14974 3.45436 1.1856C3.40278 1.21859 3.3516 1.25184 3.30094 1.28613C3.2444 1.32422 3.18863 1.36388 3.13313 1.40355C3.08326 1.43928 3.03365 1.47488 2.98483 1.51088C2.92998 1.55211 2.87762 1.59505 2.82238 1.63785C2.77474 1.67594 2.7267 1.71377 2.6801 1.75317C2.62643 1.79741 2.57551 1.84323 2.52381 1.88904C2.47799 1.92988 2.43179 1.96954 2.38702 2.01182C2.3361 2.05934 2.28649 2.10869 2.23675 2.15764C2.19355 2.20032 2.14957 2.24247 2.10716 2.28632C2.09944 2.29443 2.09198 2.30333 2.08386 2.31158C2.66845 2.61369 3.28445 2.85074 3.92074 3.01855C4.25165 1.96379 4.84017 1.00811 5.63327 0.238037Z" fill="#435279"/>
<path d="M2.23579 12.8527C2.28566 12.9018 2.33527 12.9514 2.38645 12.9992C2.43096 13.0404 2.47677 13.0795 2.52245 13.1208C2.57442 13.167 2.62639 13.2133 2.67979 13.2578C2.72613 13.2967 2.77338 13.3343 2.82077 13.372C2.87444 13.4154 2.92797 13.4586 2.98478 13.5004C3.03308 13.5366 3.08217 13.5717 3.13126 13.6077C3.18728 13.6479 3.24383 13.6881 3.3009 13.7267C3.35103 13.7605 3.40195 13.7934 3.45287 13.8259C3.51086 13.8631 3.56871 13.8996 3.62775 13.9349C3.67945 13.9661 3.73168 13.9966 3.78404 14.0264C3.84399 14.0607 3.90407 14.094 3.96468 14.1263C4.01822 14.1531 4.07188 14.1823 4.12555 14.2092C4.1872 14.2403 4.24938 14.2703 4.31313 14.2999C4.36679 14.3251 4.42125 14.35 4.47649 14.3744C4.53997 14.4025 4.60398 14.4279 4.66812 14.4547C4.72336 14.4772 4.77834 14.4995 4.8341 14.5207C4.89915 14.5457 4.96513 14.569 5.0311 14.5918C5.08686 14.6113 5.14262 14.6309 5.19917 14.6491C5.26619 14.6708 5.33321 14.6907 5.40206 14.7105C5.45782 14.7269 5.51385 14.7435 5.57013 14.7585C5.59186 14.7644 5.61385 14.769 5.63558 14.7746C4.84208 14.0041 4.25331 13.0479 3.92227 11.9924C3.28598 12.1604 2.66997 12.3974 2.08539 12.6997C2.09324 12.7077 2.1007 12.7163 2.10856 12.7245C2.14874 12.768 2.19207 12.8101 2.23579 12.8527Z" fill="#435279"/>
<path d="M1.72104 12.2926C2.36505 11.9438 3.04794 11.672 3.75544 11.483C3.40856 10.2768 3.22648 9.02921 3.21431 7.77417H0C0.058511 9.4291 0.663648 11.0181 1.72104 12.2926Z" fill="#435279"/>
</g>
<defs>
<clipPath id="clip0">
<rect width="15" height="15" fill="white"/>
</clipPath>
</defs>
</svg>
