<svg width="25" height="24" viewBox="0 0 25 24" fill="none" xmlns="http://www.w3.org/2000/svg">
<path d="M13.0556 9.49614C11.6831 9.49614 10.5332 10.609 10.5332 12.0185C10.5332 13.391 11.646 14.541 13.0556 14.541C14.4281 14.541 15.578 13.4281 15.578 12.0185C15.578 10.609 14.4281 9.49614 13.0556 9.49614ZM13.0556 9.49614C11.6831 9.49614 10.5332 10.609 10.5332 12.0185C10.5332 13.391 11.646 14.541 13.0556 14.541C14.4281 14.541 15.578 13.4281 15.578 12.0185C15.578 10.609 14.4281 9.49614 13.0556 9.49614ZM12.9443 0C6.34156 0 0.962891 5.37867 0.962891 11.9815C0.962891 18.6213 6.34156 24 12.9443 24C19.5842 24 24.9629 18.6213 24.9629 11.9815C24.9629 5.37867 19.5842 0 12.9443 0ZM20.9567 15.1716C20.9567 17.8053 18.8052 19.9567 16.1715 19.9567H9.82842C7.19473 19.9567 5.04326 17.8053 5.04326 15.1716V8.82844C5.04326 6.19475 7.19473 4.04328 9.82842 4.04328H16.1715C18.8052 4.04328 20.9567 6.19475 20.9567 8.82844V15.1716ZM16.1715 5.56414H9.82842C8.0108 5.56414 6.56413 7.04791 6.56413 8.82844V15.1716C6.56413 16.9892 8.0479 18.4359 9.82842 18.4359H16.1715C17.9892 18.4359 19.4358 16.9521 19.4358 15.1716V8.82844C19.4358 7.01082 17.9892 5.56414 16.1715 5.56414ZM13.0556 15.9134C10.9042 15.9134 9.16073 14.17 9.16073 11.9815C9.16073 9.82998 10.9042 8.08655 13.0556 8.08655C15.2071 8.08655 16.9876 9.82998 16.9876 11.9815C16.9876 14.17 15.2071 15.9134 13.0556 15.9134ZM17.2102 8.75425C16.6909 8.75425 16.2828 8.34621 16.2828 7.82689C16.2828 7.30757 16.6909 6.89954 17.2102 6.89954C17.7295 6.89954 18.1375 7.30757 18.1375 7.82689C18.1375 8.34621 17.7295 8.75425 17.2102 8.75425ZM13.0556 9.49614C11.6831 9.49614 10.5332 10.609 10.5332 12.0185C10.5332 13.391 11.646 14.541 13.0556 14.541C14.4281 14.541 15.578 13.4281 15.578 12.0185C15.578 10.609 14.4281 9.49614 13.0556 9.49614Z" fill="white"/>
</svg>
