<svg width="46" height="63" viewBox="0 0 46 63" fill="none" xmlns="http://www.w3.org/2000/svg">
<mask id="mask0" mask-type="alpha" maskUnits="userSpaceOnUse" x="0" y="0" width="46" height="63">
<path d="M22.8162 0C10.2353 0 0 10.2353 0 22.8161C0 38.4293 20.4183 61.3504 21.2876 62.3185C22.1042 63.228 23.5298 63.2264 24.3449 62.3185C25.2142 61.3504 45.6325 38.4293 45.6325 22.8161C45.6322 10.2353 35.3971 0 22.8162 0ZM22.8162 34.2955C16.4865 34.2955 11.3369 29.1459 11.3369 22.8161C11.3369 16.4863 16.4866 11.3368 22.8162 11.3368C29.1459 11.3368 34.2954 16.4865 34.2954 22.8162C34.2954 29.146 29.1459 34.2955 22.8162 34.2955Z" fill="white"/>
</mask>
<g mask="url(#mask0)">
<rect x="-39.629" width="126" height="88.4032" fill="#5E9D9F"/>
</g>
</svg>
