<svg width="98" height="98" viewBox="0 0 98 98" fill="none" xmlns="http://www.w3.org/2000/svg">
<path d="M14.6903 35.0285L1 43.4123V97.3321H97.3267V43.4123L83.6364 34.6997" fill="#435279"/>
<path d="M14.6903 35.0285L1 43.4123V97.3321H97.3267V43.4123L83.6364 34.6997" stroke="white" stroke-miterlimit="10" stroke-linecap="round" stroke-linejoin="round"/>
<path d="M97.3267 43.4121L50.153 78.0983L1 43.4121V97.3318H97.3267V43.4121Z" fill="#435279" stroke="white" stroke-miterlimit="10" stroke-linecap="round" stroke-linejoin="round"/>
<path d="M14.6901 52.6183V1H83.6363V52.6183" fill="#435279"/>
<path d="M14.6901 52.6183V1H83.6363V52.6183" stroke="white" stroke-miterlimit="10" stroke-linecap="round" stroke-linejoin="round"/>
<path d="M53.122 18.7539C51.9674 19.4114 50.6478 19.5758 49.1633 19.5758C45.5346 19.5758 42.5656 16.9456 42.5656 12.6715C42.5656 8.06855 45.6995 4.2876 50.6478 4.2876C54.4415 4.2876 57.0806 6.91783 57.0806 10.6988C57.0806 13.9866 55.2662 15.9592 53.122 15.9592C52.2972 15.9592 51.4725 15.3017 51.4725 13.9866H51.3076C50.4829 15.3017 49.4932 15.9592 48.1737 15.9592C46.8541 15.9592 45.8645 14.9729 45.8645 13.1646C45.8645 10.37 48.0087 7.90416 51.1426 7.90416C52.1323 7.90416 52.957 8.06855 53.4518 8.39733L52.6271 12.3427C52.2972 13.9866 52.6271 14.8085 53.2869 14.8085C54.4415 14.8085 55.5961 13.329 55.5961 10.8632C55.5961 7.73978 53.6168 5.43832 50.3179 5.43832C46.6892 5.43832 43.7202 8.23294 43.7202 12.6715C43.7202 16.288 46.1944 18.5895 49.3283 18.5895C50.6478 18.5895 51.8024 18.2607 52.6271 17.7675L53.122 18.7539ZM51.9674 9.38367C51.8024 9.38367 51.3076 9.21928 50.8128 9.21928C48.8334 9.21928 47.349 11.0276 47.349 13.1646C47.349 14.151 47.8438 14.8085 48.8334 14.8085C50.153 14.8085 51.3076 13.1646 51.4725 11.8495L51.9674 9.38367Z" fill="white"/>
<path d="M52.4621 24.3438H21.6177V50.4817H52.4621V24.3438Z" fill="#435279" stroke="white" stroke-miterlimit="10" stroke-linecap="round" stroke-linejoin="round"/>
<path d="M57.4102 24.3438H76.7085" stroke="white" stroke-miterlimit="10" stroke-linecap="round" stroke-linejoin="round"/>
<path d="M57.4102 33.0557H76.7085" stroke="white" stroke-miterlimit="10" stroke-linecap="round" stroke-linejoin="round"/>
<path d="M57.4102 41.9331H76.7085" stroke="white" stroke-miterlimit="10" stroke-linecap="round" stroke-linejoin="round"/>
<path d="M57.4102 50.8096H76.7085" stroke="white" stroke-miterlimit="10" stroke-linecap="round" stroke-linejoin="round"/>
<path d="M23.597 59.5229H74.2345" stroke="white" stroke-miterlimit="10" stroke-linecap="round" stroke-linejoin="round"/>
<path d="M35.3079 68.0708H63.678" stroke="white" stroke-miterlimit="10" stroke-linecap="round" stroke-linejoin="round"/>
</svg>
