<svg width="25" height="24" viewBox="0 0 25 24" fill="none" xmlns="http://www.w3.org/2000/svg">
<path d="M12.9814 0C6.34156 0 0.962891 5.37867 0.962891 11.9815C0.962891 18.6213 6.34156 24 12.9814 24C19.6213 24 24.9629 18.6213 24.9629 11.9815C24.9629 5.37867 19.5842 0 12.9814 0ZM20.3261 7.38176C20.3261 7.41886 20.3261 7.53014 20.2519 7.60433C19.9181 8.04946 19.5471 8.49459 19.0649 8.82844C18.9907 8.86553 18.8794 8.93972 18.8794 9.01391C18.8794 11.4621 18.2488 13.9104 16.4683 15.6538C14.2055 17.9165 10.7929 18.51 7.78824 17.694C7.19473 17.5456 6.63832 17.323 6.119 17.0263C5.93352 16.915 5.78515 16.8408 5.59968 16.7295C5.56258 16.6924 5.52549 16.6553 5.56258 16.6553C5.59968 16.6553 5.63677 16.6553 5.74805 16.6553C6.60122 16.7295 7.45439 16.6182 8.27046 16.3215C8.7156 16.1731 9.64295 15.8764 9.93971 15.4312C9.93971 15.4312 9.93971 15.4312 9.93971 15.3941C9.82842 15.357 9.71714 15.357 9.60586 15.357C8.78978 15.1345 7.67696 14.7264 7.19473 13.3168C7.15764 13.2427 7.19473 13.2056 7.26892 13.2056C7.93662 13.2427 8.19628 13.2056 8.41884 13.1685C8.27046 13.1314 8.15918 13.0943 8.0479 13.0572C7.00926 12.6492 6.26737 11.6476 6.119 10.5719C6.119 10.4606 6.0819 10.3493 6.119 10.238C6.119 10.1638 6.15609 10.1267 6.23028 10.1638C6.7496 10.4235 7.34311 10.4977 7.4173 10.4977C7.26892 10.3864 7.15764 10.2751 7.04635 10.1638C6.15609 9.31067 5.78515 7.60433 6.52703 6.52859C6.56413 6.45441 6.63832 6.45441 6.7125 6.52859C8.34465 8.38331 10.3848 9.27357 12.796 9.64451C12.8702 9.64451 12.8702 9.64451 12.8702 9.57032C12.796 9.12519 12.796 8.71716 12.9073 8.30912C13.0185 7.86399 13.2411 7.45595 13.5008 7.08501C13.7604 6.75116 14.1314 6.45441 14.5023 6.26893C14.8732 6.08346 15.3184 5.93509 15.7635 5.89799C16.2086 5.8609 16.6538 5.93509 17.0989 6.12056C17.4328 6.23184 17.6924 6.41731 17.9521 6.63988C17.9892 6.67697 18.0634 6.75116 18.1005 6.78825C18.1375 6.82535 18.1746 6.82535 18.2117 6.82535C18.8423 6.67697 19.4358 6.45441 19.9923 6.15765C20.0294 6.15765 20.0294 6.15765 20.0664 6.15765C20.1035 6.15765 20.0664 6.19475 20.0664 6.23184C19.9552 6.56569 19.7697 6.86244 19.5842 7.1221C19.4358 7.30757 19.102 7.71561 18.8423 7.7898C19.3617 7.71561 19.881 7.56723 20.3261 7.34467C20.3261 7.34467 20.3261 7.34467 20.3261 7.38176Z" fill="white"/>
</svg>
