<svg width="25" height="24" viewBox="0 0 25 24" fill="none" xmlns="http://www.w3.org/2000/svg">
<path d="M15.1701 12.2411L11.4236 14.0958C11.2752 14.17 10.793 14.0587 10.793 13.9104V10.1267C10.793 9.94127 11.2752 9.86708 11.4607 9.94127L15.0217 11.8702C15.1701 11.9444 15.3185 12.1669 15.1701 12.2411Z" fill="white"/>
<path d="M12.9072 0C6.30445 0 0.925781 5.37867 0.925781 11.9815C0.925781 18.6213 6.30445 23.9629 12.9072 23.9629C19.5471 23.9629 24.8887 18.5842 24.8887 11.9815C24.9258 5.37867 19.5471 0 12.9072 0ZM20.0664 13.9845C20.0664 15.8022 18.6198 17.2488 16.8021 17.2488H8.49301C6.71249 17.2488 5.22872 15.8022 5.22872 13.9845V10.1267C5.22872 8.30912 6.67539 6.86244 8.49301 6.86244H16.8021C18.6198 6.86244 20.0664 8.30912 20.0664 10.1267V13.9845Z" fill="white"/>
</svg>
