<svg width="36" height="35" viewBox="0 0 36 35" fill="none" xmlns="http://www.w3.org/2000/svg">
<path fill-rule="evenodd" clip-rule="evenodd" d="M33.7171 16.8335L1.33212 16.8319C1.28011 16.8319 1.2286 16.8422 1.18055 16.8621C1.13249 16.882 1.08883 16.9112 1.05205 16.948C1.01527 16.9847 0.986091 17.0284 0.966185 17.0765C0.946279 17.1245 0.936036 17.176 0.936036 17.228C0.936035 17.28 0.94628 17.3315 0.966185 17.3796C0.986091 17.4277 1.01526 17.4713 1.05205 17.5081C1.08883 17.5449 1.13249 17.5741 1.18054 17.594C1.2286 17.6139 1.28011 17.6241 1.33212 17.6241L33.7171 17.6225L25.2986 26.041C25.2246 26.115 25.183 26.2154 25.183 26.3201C25.183 26.4248 25.2246 26.5252 25.2986 26.5992C25.3726 26.6733 25.473 26.7149 25.5777 26.7149C25.6824 26.7149 25.7828 26.6733 25.8568 26.5992L34.9489 17.5071C35.0229 17.4331 35.0645 17.3327 35.0645 17.228C35.0645 17.1233 35.0229 17.0229 34.9489 16.9489L25.8568 7.85682C25.7828 7.78279 25.6824 7.7412 25.5777 7.74121C25.473 7.74121 25.3726 7.78279 25.2986 7.85682C25.2246 7.93084 25.183 8.03125 25.183 8.13594C25.183 8.24063 25.2246 8.34103 25.2986 8.41505L33.7171 16.8335Z" fill="white"/>
</svg>
