<svg width="36" height="36" viewBox="0 0 36 36" fill="none" xmlns="http://www.w3.org/2000/svg">
<path fill-rule="evenodd" clip-rule="evenodd" d="M34.0092 1.1665L0.171415 35.0009C0.11707 35.0553 0.0739615 35.1198 0.0445496 35.1908C0.015138 35.2618 0 35.3379 0 35.4148C0 35.4916 0.015138 35.5677 0.0445496 35.6387C0.0739615 35.7097 0.11707 35.7742 0.171415 35.8286C0.225761 35.8829 0.290279 35.926 0.361285 35.9555C0.432286 35.9849 0.508389 36 0.58525 36C0.662111 36 0.738214 35.9849 0.809215 35.9555C0.880221 35.926 0.944739 35.8829 0.999085 35.8286L34.8335 1.99083V19.5823C34.8335 19.7369 34.895 19.8853 35.0043 19.9947C35.1137 20.1041 35.2621 20.1655 35.4167 20.1655C35.5714 20.1655 35.7198 20.1041 35.8292 19.9947C35.9386 19.8853 36 19.7369 36 19.5823V0.58325C36 0.428561 35.9386 0.28021 35.8292 0.17083C35.7198 0.0614499 35.5714 0 35.4167 0H16.4178C16.2631 0 16.1147 0.0614485 16.0053 0.17083C15.8959 0.280213 15.8345 0.428566 15.8345 0.58325C15.8345 0.737935 15.8959 0.886287 16.0053 0.99567C16.1147 1.10505 16.2631 1.1665 16.4178 1.1665H34.0092Z" fill="white"/>
</svg>
