<svg width="22" height="22" viewBox="0 0 22 22" fill="none" xmlns="http://www.w3.org/2000/svg">
<g clip-path="url(#clip0)">
<path d="M5.31006 11.6037L15.4857 21.7512C15.8191 22.0835 16.3589 22.0829 16.6917 21.7495C17.0243 21.4161 17.0234 20.876 16.69 20.5435L7.12003 11L16.6903 1.45647C17.0237 1.12389 17.0246 0.584166 16.6921 0.250729C16.5252 0.083582 16.3066 5.7775e-06 16.088 5.79661e-06C15.87 5.81567e-06 15.6523 0.0830232 15.4858 0.24901L5.31006 10.3963C5.14949 10.556 5.05938 10.7734 5.05938 11C5.05938 11.2265 5.14975 11.4437 5.31006 11.6037Z" fill="white"/>
</g>
<defs>
<clipPath id="clip0">
<rect width="22" height="22" fill="white" transform="translate(22 22) rotate(180)"/>
</clipPath>
</defs>
</svg>
