<svg width="25" height="24" viewBox="0 0 25 24" fill="none" xmlns="http://www.w3.org/2000/svg">
<path d="M12.9443 0C6.34156 0 0.962891 5.37867 0.962891 11.9815C0.962891 18.6213 6.34156 23.9629 12.9443 23.9629C19.5842 23.9629 24.9258 18.5842 24.9258 11.9815C24.9629 5.37867 19.5842 0 12.9443 0ZM9.86552 17.9165H7.23182V9.45904H9.86552V17.9165ZM8.56722 8.30912C7.71405 8.30912 7.04635 7.64142 7.04635 6.78825C7.04635 5.97218 7.71405 5.26739 8.56722 5.26739C9.42039 5.26739 10.0881 5.93508 10.0881 6.78825C10.0881 7.64142 9.38329 8.30912 8.56722 8.30912ZM19.6955 17.9165H17.0618V13.8362C17.0618 12.8717 17.0618 11.6105 15.6893 11.6105C14.3168 11.6105 14.1314 12.6862 14.1314 13.762V17.9165H11.4977V9.45904H14.0201V10.609H14.0572C14.391 9.94127 15.2442 9.23648 16.5425 9.23648C19.2133 9.23648 19.6955 10.9799 19.6955 13.2427V17.9165Z" fill="white"/>
</svg>
