<svg width="24" height="24" viewBox="0 0 24 24" fill="none" xmlns="http://www.w3.org/2000/svg">
<circle cx="12" cy="12" r="12" fill="#435279"/>
<path d="M5.29217 7.60192C7.21361 9.22918 10.5852 12.092 11.5761 12.9846C11.7091 13.1051 11.8518 13.1664 11.9999 13.1664C12.1477 13.1664 12.2902 13.1057 12.4229 12.9858C13.4147 12.0923 16.7862 9.22918 18.7077 7.60192C18.8273 7.5008 18.8456 7.32307 18.7487 7.19945C18.5248 6.91379 18.191 6.75 17.8332 6.75H6.16659C5.80886 6.75 5.47502 6.91379 5.25115 7.19948C5.1543 7.32307 5.17254 7.5008 5.29217 7.60192Z" fill="white"/>
<path d="M18.8308 8.48373C18.7274 8.43561 18.6058 8.4524 18.5198 8.5259C16.3889 10.3323 13.6694 12.6477 12.8138 13.4187C12.3335 13.8522 11.667 13.8522 11.1856 13.4181C10.2736 12.5964 7.21966 10.0002 5.48021 8.52587C5.39361 8.45237 5.27171 8.43616 5.16918 8.48371C5.06609 8.53159 5 8.6347 5 8.74834V16.0833C5 16.7268 5.52322 17.25 6.16668 17.25H17.8334C18.4768 17.25 19 16.7268 19 16.0833V8.74834C19 8.6347 18.9339 8.53131 18.8308 8.48373Z" fill="white"/>
</svg>
