<?xml version="1.0" encoding="UTF-8" standalone="no"?>
<svg
   xmlns:dc="http://purl.org/dc/elements/1.1/"
   xmlns:cc="http://creativecommons.org/ns#"
   xmlns:rdf="http://www.w3.org/1999/02/22-rdf-syntax-ns#"
   xmlns:svg="http://www.w3.org/2000/svg"
   xmlns="http://www.w3.org/2000/svg"
   xmlns:sodipodi="http://sodipodi.sourceforge.net/DTD/sodipodi-0.dtd"
   xmlns:inkscape="http://www.inkscape.org/namespaces/inkscape"
   width="24"
   height="24"
   viewBox="0 0 24 24"
   fill="none"
   version="1.1"
   id="svg8"
   sodipodi:docname="letter-circle.svg"
   inkscape:version="1.0.2 (e86c870879, 2021-01-15, custom)">
  <metadata
     id="metadata14">
    <rdf:RDF>
      <cc:Work
         rdf:about="">
        <dc:format>image/svg+xml</dc:format>
        <dc:type
           rdf:resource="http://purl.org/dc/dcmitype/StillImage" />
        <dc:title></dc:title>
      </cc:Work>
    </rdf:RDF>
  </metadata>
  <defs
     id="defs12" />
  <sodipodi:namedview
     pagecolor="#ffffff"
     bordercolor="#666666"
     borderopacity="1"
     objecttolerance="10"
     gridtolerance="10"
     guidetolerance="10"
     inkscape:pageopacity="0"
     inkscape:pageshadow="2"
     inkscape:window-width="1920"
     inkscape:window-height="1017"
     id="namedview10"
     showgrid="false"
     inkscape:zoom="17.708333"
     inkscape:cx="14.654983"
     inkscape:cy="13.083697"
     inkscape:window-x="-8"
     inkscape:window-y="-8"
     inkscape:window-maximized="1"
     inkscape:current-layer="svg8" />
  <path
     id="circle2"
     d="M 12 0 A 12 12 0 0 0 0 12 A 12 12 0 0 0 12 24 A 12 12 0 0 0 24 12 A 12 12 0 0 0 12 0 z M 6.1660156 6.75 L 17.833984 6.75 C 18.191784 6.75 18.524147 6.9135587 18.748047 7.1992188 C 18.844947 7.3228387 18.826631 7.5004425 18.707031 7.6015625 C 16.785531 9.2288225 13.415628 12.092828 12.423828 12.986328 C 12.291128 13.106228 12.1478 13.166016 12 13.166016 C 11.8519 13.166016 11.709172 13.104875 11.576172 12.984375 C 10.585272 12.091775 7.2144088 9.2288225 5.2929688 7.6015625 C 5.1733387 7.5004425 5.1551031 7.3228088 5.2519531 7.1992188 C 5.4758231 6.9135288 5.8082856 6.75 6.1660156 6.75 z M 5.3300781 8.4589844 C 5.3841944 8.4662806 5.4371687 8.4886406 5.4804688 8.5253906 C 7.2199188 9.9997206 10.273547 12.596269 11.185547 13.417969 C 11.666947 13.852069 12.334153 13.851469 12.814453 13.417969 C 13.670053 12.646969 16.388631 10.331791 18.519531 8.5253906 C 18.605531 8.4518906 18.726678 8.436255 18.830078 8.484375 C 18.933178 8.531955 19 8.6344069 19 8.7480469 L 19 16.083984 C 19 16.727484 18.477384 17.25 17.833984 17.25 L 6.1660156 17.25 C 5.5225556 17.25 5 16.727484 5 16.083984 L 5 8.7480469 C 5 8.6344069 5.0668319 8.532255 5.1699219 8.484375 C 5.2211869 8.4606 5.2759619 8.4516881 5.3300781 8.4589844 z " />
</svg>
