<svg width="49" height="67" viewBox="0 0 49 67" fill="none" xmlns="http://www.w3.org/2000/svg">
<mask id="mask0" mask-type="alpha" maskUnits="userSpaceOnUse" x="0" y="0" width="49" height="67">
<path d="M25.5185 65.9412L25.8906 66.2752L25.5185 65.9412C24.8501 66.6857 23.6807 66.6869 23.0113 65.9412L22.6392 66.2752L23.0112 65.9412C22.5561 65.4343 16.914 59.1028 11.3887 50.8328C8.62601 46.6978 5.89926 42.0881 3.86465 37.4869C1.8273 32.8796 0.5 28.3163 0.5 24.2648C0.5 11.1613 11.1613 0.5 24.2649 0.5C37.3683 0.5 48.0295 11.1613 48.0298 24.2648C48.0298 28.3163 46.7025 32.8796 44.6651 37.4869C42.6305 42.0881 39.9038 46.6978 37.1411 50.8328C31.6158 59.1028 25.9737 65.4343 25.5185 65.9412ZM11.5567 24.2648C11.5567 31.2726 17.2571 36.973 24.2649 36.973C31.2726 36.973 36.9729 31.2727 36.9729 24.2649C36.9729 17.2571 31.2726 11.5566 24.2649 11.5566C17.2572 11.5566 11.5567 17.2569 11.5567 24.2648Z" stroke="white"/>
</mask>
<g mask="url(#mask0)">
<rect x="-42.1453" width="134" height="94.0161" fill="white"/>
</g>
</svg>
